<svg xmlns="http://www.w3.org/2000/svg" viewBox="0 0 251.38 249.6"><defs><style>.cls-1{fill:none;}.cls-2{fill:#242f3e;}.cls-3{fill:#ed7422;}.cls-4{fill:#ed7523;}</style></defs><title>Asset 1</title><g id="Layer_2" data-name="Layer 2"><g id="Layer_1-2" data-name="Layer 1"><path class="cls-1" d="M187.44,118.83c-.95,1.92-3.1,2.22-4.77,3.16-12.09,6.83-19.06,16.92-19.15,31-.06,9.17,5.27,13.29,14.22,11.74a36.54,36.54,0,0,0,12.95-5c5.55-3.37,5.71-3.3,9,2.5a3.33,3.33,0,0,0,2.53,2c2.6-6.66,4.57-13.49,4.13-20.83a25.74,25.74,0,0,0-11.51-20.57c-1.11-.77-2.34-1.51-2.83-2.89C190.12,120.82,188.71,120,187.44,118.83Z"/><path class="cls-2" d="M169.08,169.83c.38-1.07.62-2.48-.71-3a2.36,2.36,0,0,0-2.93,1.31c-2.36,4.19-4.69,8.39-7,12.59l-10.77,19.43c-2.18-1.76-2.87-4.21-4.09-6.24-6.26-10.39-14.86-17.82-26.73-20.93-8.51-2.24-17.1-1.63-26.36.64a66.93,66.93,0,0,0,10.68-17.1A81.2,81.2,0,0,0,107.42,129c.17-3.75.2-3.73,4.13-4.43,2.13-.38,4.27-.71,6.34-1.27a2.13,2.13,0,0,0,1.78-2.52,2.16,2.16,0,0,0-2.46-1.3c-1.81.16-3.62.47-5.42.76A45.41,45.41,0,0,1,95,120.19c-12.59-2.64-20.25-10.58-24.31-22.85C75.92,98,81,98.55,85.92,96.9c.94-.31,1.89-.61,2.8-1,4-1.75,4.27-3,.61-5.65C83,85.71,78.94,80,79.5,71.87c.42-6.07,2.61-11.56,6.63-17.27a38.69,38.69,0,0,0,.17,14.91,23.06,23.06,0,0,0,9,13.87c1.28,1,2.75,2.26,4.49,1.2,1.52-.92,1.07-2.65,1-4.11-.28-6.63,2-12.26,6.91-17.73.34,1.77.48,2.95.79,4.08,2.43,8.84,8.23,14.61,16.59,17.91,8.88,3.5,18.12,4,27.44,2.62A33.69,33.69,0,0,1,168.74,89c7.47,2.63,12.39,8.07,15.4,15.32a56.26,56.26,0,0,1,3.54,13.92,3.15,3.15,0,0,1-.24.56c1.27,1.21,2.68,2,4.59,1.17a3.58,3.58,0,0,1-.11-.35c-.7-6.63-2-13.1-5-19.12-6.48-13-19.4-18.77-33-17.24-9.36,1-18.56,1.17-27.43-2.49s-14.39-9.88-14.38-20c0-1.47.34-3.24-1.39-3.93-1.56-.62-2.83.45-4,1.42A26.82,26.82,0,0,0,96.8,78.18c-1.58.66-2.09-.72-2.71-1.51C90,71.4,89,65.25,89.63,58.81a45.08,45.08,0,0,1,2.21-10.69,6.44,6.44,0,0,0,.33-.93c.3-1.44,1-3.22-.5-4.09S89,43.57,88,44.77A59,59,0,0,0,80.6,55.39a45.78,45.78,0,0,0-4.43,11.55c-2.09,9.23.19,17,7,23.56.6.57,1.22,1.12,2.28,2.08A20.07,20.07,0,0,1,71.75,93c-1.75-.52-3.61-2.5-5.46-.59s-.2,3.9.29,5.66c4.51,16.09,16.88,25.87,33.68,26.88,1,.06,2-.23,3.4.85-1.39,20.73-6.8,39.74-25.32,52.61a3.6,3.6,0,0,0,1.31,3.26c6-2.18,12-4.66,18.41-5.51,16.26-2.16,29.69,2.62,39.53,16.2a77,77,0,0,1,7.75,14.34c1.32,1.29,2.49,0,3.73-.22q9.18-16.78,18.37-33.57A20.46,20.46,0,0,0,169.08,169.83Z"/><path class="cls-3" d="M250.14,108.26a120.76,120.76,0,0,0-31-66.51c-23.86-26.37-54-39.91-89.42-41.63A117.69,117.69,0,0,0,89.08,5.63,124.33,124.33,0,0,0,28.47,46.25,122.21,122.21,0,0,0,.72,112.63c-1.95,19.12,0,38,6.81,56.2a125.83,125.83,0,0,0,26,42.51c4,4.31,4,4.15,7.84,0a168.27,168.27,0,0,1,16.13-15.57c6.83-5.6,14.52-9.76,22.11-14.11a3.11,3.11,0,0,0-1.33-3.25c-8.19,3-15.3,7.84-22.13,13.09A121.57,121.57,0,0,0,37.89,209C6.08,178.94-8.6,120.15,18,69.49a121.62,121.62,0,0,1,228.72,68.87C240,202.41,189,238.61,149.67,244.6a102,102,0,0,0,1.8-17.65c0-6.92.11-13.87-2.4-20.5l.11-.2a4,4,0,0,0-3.84.42,84,84,0,0,1,1.06,31.57,76.57,76.57,0,0,0-1.31,7.83c-.17,3.28.27,3.73,3.62,3.46a12.37,12.37,0,0,0,1.49-.18c29.33-6.39,54-20.62,72.92-44.08C246.05,176.86,254.9,144.4,250.14,108.26Z"/><path class="cls-4" d="M207.05,138.81c-2-8.81-7.17-15.08-15.13-19.16l-4.24-1.38a17.54,17.54,0,0,1-3.56,1.67c-12.35,4.79-23.67,19.73-21.85,35.58.79,6.94,5.55,12.81,14.58,10.84a49.35,49.35,0,0,0,9.93-2.91c3.26-1.47,6.09-3.65,9.08-5.54,1.78,1.8,2.15,4,3,5.92.58,1.23.87,2.72,2.44,2.73,1.79,0,2.32-1.53,2.76-3s1.08-3.1,1.51-4.69C207.39,152.28,208.55,145.62,207.05,138.81Zm-27.91,22.87c-.79.21-1.64.22-2.44.39-6.11,1.31-9.55-1-10.43-7.18-.53-3.7.3-7.26,1.21-10.8.51-2,2-2.44,3.81-2.21,8.66,1.11,16.36,4.05,22,11.92C189.4,158.2,184.44,160.23,179.14,161.68Zm22.17-3.12c-6.62-13.17-16.79-19.58-30.94-20.93,4.15-6.31,8.67-11.41,15.63-14a5.33,5.33,0,0,1,4.71.25c7.28,3.8,11.62,9.65,12.43,17.93A38.61,38.61,0,0,1,201.31,158.56Z"/></g></g></svg>